<?xml version="1.0" encoding="UTF-8"?>
<svg version="1.1" xmlns="http://www.w3.org/2000/svg" width="1123" height="794">
<path d="M0 0 C17.36000239 -0.07030398 34.7199599 -0.12309239 52.0800724 -0.15543652 C60.14197189 -0.1708584 68.20378255 -0.19185761 76.265625 -0.22631836 C83.29818803 -0.25636489 90.33068668 -0.27560894 97.36331213 -0.28226548 C101.08173245 -0.28615212 104.79996871 -0.29518663 108.51832962 -0.31719017 C112.68498907 -0.341643 116.85133529 -0.3419603 121.01806641 -0.34057617 C122.23008224 -0.351362 123.44209808 -0.36214783 124.69084167 -0.3732605 C139.7525323 -0.31948915 154.96131874 2.34208695 166.15234375 12.98046875 C171.59865319 18.93341162 172.37834599 25.9398967 172.2734375 33.703125 C171.16477712 47.07040153 167.02351915 57.43953491 157.25 66.8125 C152.64320982 70.59951321 147.52121739 72.8440203 142 75 C141.27039063 75.29777344 140.54078125 75.59554687 139.7890625 75.90234375 C128.66459643 80.05851044 116.56751883 80.29560192 104.83447266 80.22705078 C103.48267119 80.2264847 102.13086911 80.22680706 100.77906799 80.22793579 C97.15805588 80.22850263 93.53718003 80.21685852 89.91619921 80.20278788 C86.11392973 80.19016724 82.31165609 80.18910119 78.5093689 80.18673706 C71.33098889 80.18055523 64.15267081 80.16418974 56.97431791 80.14403808 C48.79277919 80.12157557 40.61123729 80.11065979 32.42967534 80.10064721 C15.61974748 80.07982004 -1.19011832 80.0447092 -18 80 C-17.38042671 79.27765167 -17.38042671 79.27765167 -16.74833679 78.54071045 C-16.20707657 77.9094928 -15.66581635 77.27827515 -15.1081543 76.62792969 C-14.57135544 76.00198914 -14.03455658 75.37604858 -13.48149109 74.73114014 C-12.40674817 73.47529012 -11.33669908 72.21541832 -10.26953125 70.953125 C-5.92312347 65.87260544 -1.23040979 61.18615483 3.546875 56.515625 C5.97805793 54.19209486 5.97805793 54.19209486 7.36043072 51.8739481 C9 50 9 50 11.14838123 49.50057125 C11.98587249 49.50078053 12.82336374 49.50098982 13.68623352 49.50120544 C14.64931427 49.49162811 15.61239502 49.48205078 16.60466003 49.47218323 C17.65978287 49.48192673 18.7149057 49.49167023 19.80200195 49.50170898 C20.91446289 49.49619019 22.02692383 49.49067139 23.1730957 49.48498535 C25.59248907 49.475648 28.01193158 49.47557439 30.43132973 49.48357964 C34.2602313 49.4961659 38.08840731 49.48495869 41.9172821 49.46754456 C49.35787581 49.4380434 56.79826027 49.43522316 64.2388916 49.43719482 C74.34156654 49.43868165 84.44401872 49.42199195 94.54662132 49.38105965 C98.31906451 49.37120921 102.09116544 49.37994663 105.86360168 49.38975525 C108.17900823 49.38361074 110.4944129 49.37669891 112.80981445 49.36889648 C114.38338966 49.38047539 114.38338966 49.38047539 115.98875427 49.39228821 C122.70617293 49.34556548 127.25641705 48.59528117 132.3125 43.8125 C135.11912549 39.13479086 135.1915495 35.03042474 134.6875 29.6875 C132.33389606 25.9391678 129.89546805 25.74418505 125.75496483 24.59797478 C121.62963772 23.70255806 117.68189777 23.59146375 113.47387695 23.63110352 C112.57967545 23.62733704 111.68547394 23.62357056 110.76417542 23.61968994 C108.84038142 23.61330124 106.9165558 23.61354594 104.99276161 23.61987495 C101.93378086 23.62907008 98.87540218 23.61866435 95.81645203 23.60325623 C87.12544584 23.56339877 78.43449069 23.56194379 69.7434082 23.56420898 C64.40842805 23.56426047 59.07377284 23.54490449 53.73888206 23.51487541 C50.75060748 23.50417421 47.76298689 23.51610733 44.7747345 23.52870178 C32.26646764 23.505111 17.70874952 23.45171458 7.65234375 14.84765625 C3.94099159 10.69760998 0 5.70589041 0 0 Z " fill="#24BAE8" transform="translate(247,365)"/>
<path d="M0 0 C4.20820145 -0.08742801 8.41616776 -0.14053641 12.625 -0.1875 C14.40970703 -0.22520508 14.40970703 -0.22520508 16.23046875 -0.26367188 C23.94151959 -0.32828962 28.69162197 0.15325611 34.6875 5.3125 C40.43749538 11.99492706 40.5054766 17.4903392 40 26 C39.2583978 31.7159182 38.23720014 37.36828149 37.19140625 43.03515625 C36.90149337 44.64734477 36.61244125 46.25968828 36.32420349 47.87217712 C35.72262986 51.22576531 35.11447084 54.57806039 34.50073242 57.92944336 C33.71406659 62.22517147 32.93850455 66.52280538 32.16709995 70.82129765 C31.42859135 74.93486387 30.68547707 79.04759298 29.94140625 83.16015625 C29.80012362 83.94230059 29.65884098 84.72444492 29.51327705 85.5302906 C29.11364758 87.73688589 28.71083941 89.94287457 28.30688477 92.14868164 C28.07816177 93.40266251 27.84943878 94.65664337 27.61378479 95.94862366 C27 99 27 99 26 102 C61.31 102 96.62 102 133 102 C128.89740317 106.78636296 124.7946858 111.46319114 120.5 116.0625 C119.97664062 116.62904297 119.45328125 117.19558594 118.9140625 117.77929688 C117.74845809 119.02950161 116.55764554 120.25652415 115.34695435 121.46311951 C113.53011508 123.42698561 112.06044044 125.28366247 110.51950073 127.4443512 C105.680921 133.73181743 101.06757649 138.08075279 92.99041748 139.23420715 C86.24031825 139.7486425 79.5046994 139.6250051 72.7432065 139.41951513 C69.3337131 139.33104601 65.92398335 139.32370065 62.51351929 139.30715942 C56.07727904 139.26391459 49.64443091 139.14942409 43.20967424 139.00826657 C35.87502607 138.85091643 28.54020205 138.77459552 21.20428205 138.70453048 C6.13430885 138.55881042 -8.93250388 138.31311808 -24 138 C-22.75850714 128.97428804 -21.35855649 119.9956977 -19.75341797 111.02783203 C-19.53854736 109.81634491 -19.32367676 108.60485779 -19.10229492 107.35665894 C-18.5214847 104.08455809 -17.93861795 100.81283704 -17.35477209 97.54127741 C-16.74181449 94.10365814 -16.13157451 90.66555645 -15.52102661 87.22750854 C-14.36842191 80.73943253 -13.2134297 74.25178399 -12.05754483 67.76429164 C-10.7400453 60.36903661 -9.42526029 52.97329976 -8.11068511 45.57752442 C-5.41010953 30.38448424 -2.70618404 15.19204227 0 0 Z " fill="#24BAE8" transform="translate(691,307)"/>
<path d="M0 0 C47.52 0 95.04 0 144 0 C142.05432417 3.89135165 140.39826579 5.78237226 137.3125 8.75 C134.2082692 11.78742526 131.19885493 14.82506792 128.375 18.125 C127.84708862 18.71865356 127.31917725 19.31230713 126.77526855 19.9239502 C124.98222548 21.94901682 124.98222548 21.94901682 123.54772949 24.10095215 C120.49976213 27.98160346 118.19086075 29.77651386 113.27026367 30.69995117 C108.56473544 31.03048446 103.86772273 30.90046683 99.15625 30.78125 C97.41893123 30.76631103 95.68157853 30.75493183 93.94421387 30.74694824 C89.39279541 30.71654326 84.84345102 30.63808528 80.29284668 30.54931641 C75.64082899 30.46717055 70.98847291 30.43087579 66.3359375 30.390625 C57.22305186 30.30507598 48.11169903 30.16871391 39 30 C38.87271011 30.9092926 38.74542023 31.81858521 38.61427307 32.75543213 C37.67158827 39.43192668 36.70300734 46.09484867 35.52734375 52.734375 C35.39936905 53.46448792 35.27139435 54.19460083 35.13954163 54.94683838 C34.87435647 56.45564455 34.60804327 57.96425292 34.34057617 59.47265625 C33.93070811 61.78837354 33.52673925 64.10507402 33.12304688 66.421875 C32.86232913 67.90110339 32.60127457 69.38027247 32.33984375 70.859375 C32.22003647 71.54884216 32.10022919 72.23830933 31.97679138 72.94866943 C31.11470936 77.77058128 31.11470936 77.77058128 30 80 C15.48 80 0.96 80 -14 80 C-12.76714577 72.82403547 -11.53405821 65.64811608 -10.29907227 58.47251892 C-9.72358005 55.1284189 -9.14854702 51.78424165 -8.57421875 48.43994141 C-7.9098544 44.57176737 -7.24410237 40.70383411 -6.578125 36.8359375 C-6.38003235 35.68080658 -6.1819397 34.52567566 -5.97784424 33.33554077 C-4.05959819 22.20884396 -2.02009337 11.11051354 0 0 Z " fill="#24BAE8" transform="translate(512,365)"/>
<path d="M0 0 C4.18726294 -0.11679952 8.37410301 -0.18745327 12.5625 -0.25 C14.33463867 -0.30027344 14.33463867 -0.30027344 16.14257812 -0.3515625 C23.80099238 -0.43737106 28.72914672 -0.0661752 34.44677734 5.37744141 C38.99597271 10.36577969 40.19562624 15.0372684 40.12959099 21.65572357 C39.88172829 26.13951275 39.05447061 30.52607095 38.27172852 34.94238281 C38.08801697 36.01001862 37.90430542 37.07765442 37.71502686 38.17764282 C37.10942613 41.68728653 36.49429068 45.19518471 35.87890625 48.703125 C35.45477379 51.14824158 35.0311928 53.59345388 34.60813904 56.03875732 C33.72188392 61.15350339 32.83132466 66.26747345 31.93725586 71.38085938 C30.79051986 77.93937385 29.65089276 84.49908419 28.51400852 91.05931473 C27.42953279 97.31597186 26.34200707 103.57209743 25.25390625 109.828125 C25.04618654 111.02336037 24.83846684 112.21859573 24.62445259 113.45005035 C24.03718201 116.82539061 23.44779931 120.20035453 22.85766602 123.57519531 C22.68359726 124.57682709 22.5095285 125.57845886 22.33018494 126.61044312 C22.16894135 127.52993744 22.00769775 128.44943176 21.84156799 129.39678955 C21.70237725 130.19388966 21.56318651 130.99098976 21.41977787 131.81224442 C21.0210073 133.89051631 20.51324986 135.94700058 20 138 C5.48 138 -9.04 138 -24 138 C-22.72621211 129.08348476 -21.40651063 120.21783837 -19.86108398 111.35083008 C-19.55581787 109.58471878 -19.55581787 109.58471878 -19.24438477 107.78292847 C-18.58037763 103.94476398 -17.91336154 100.1071301 -17.24609375 96.26953125 C-16.89813543 94.26364928 -16.55045174 92.25771985 -16.20280129 90.2517845 C-15.11434918 83.97148876 -14.02382509 77.69155537 -12.93188477 71.41186523 C-11.80673581 64.94101644 -10.68481639 58.46961362 -9.56449455 51.99792749 C-8.59884443 46.42027863 -7.63138981 40.84294493 -6.66243988 35.26586837 C-6.08521033 31.9434101 -5.50862587 28.62084333 -4.93371391 25.29798317 C-4.29455294 21.60687262 -3.65243698 17.91628825 -3.00952148 14.22583008 C-2.72507927 12.57784172 -2.72507927 12.57784172 -2.43489075 10.89656067 C-2.25970917 9.89455627 -2.08452759 8.89255188 -1.90403748 7.86018372 C-1.75269568 6.98883695 -1.60135389 6.11749018 -1.44542599 5.21973896 C-1 3 -1 3 0 0 Z " fill="#24BAE8" transform="translate(856,307)"/>
<path d="M0 0 C4.20820145 -0.08742801 8.41616776 -0.14053641 12.625 -0.1875 C14.40970703 -0.22520508 14.40970703 -0.22520508 16.23046875 -0.26367188 C23.28528934 -0.32279048 28.37018751 -0.27303605 33.828125 4.6484375 C39.43989282 11.462727 40.39599732 16.25103886 40 25 C39.57300832 28.72137539 38.93602461 32.39201009 38.27172852 36.07763672 C38.08801697 37.135811 37.90430542 38.19398529 37.71502686 39.28422546 C37.11107941 42.75085142 36.49515197 46.21522851 35.87890625 49.6796875 C35.45461897 52.09949723 35.03104077 54.51943138 34.60813904 56.93948364 C33.49655078 63.28825878 32.37456474 69.63515468 31.25061035 75.98175049 C30.33332566 81.17164215 29.423477 86.36282431 28.51400852 91.5540905 C27.42976596 97.74222191 26.34234175 103.92979235 25.25390625 110.1171875 C25.04618654 111.29831997 24.83846684 112.47945244 24.62445259 113.6963768 C24.03722286 117.03079759 23.44785503 120.36483235 22.85766602 123.69873047 C22.59656288 125.18243889 22.59656288 125.18243889 22.33018494 126.69612122 C22.16894135 127.60431107 22.00769775 128.51250092 21.84156799 129.44821167 C21.63278188 130.62890386 21.63278188 130.62890386 21.41977787 131.83344841 C21.01855537 133.90423227 20.51157918 135.9536833 20 138 C5.48 138 -9.04 138 -24 138 C-19.50737958 109.86200898 -14.70359487 81.78983747 -9.76574707 53.72705078 C-8.98217266 49.26942716 -8.20150557 44.81129624 -7.42083263 40.35316372 C-6.66446738 36.03538957 -5.90664698 31.71787187 -5.14834023 27.40043831 C-4.78873548 25.35236243 -4.42950686 23.30422047 -4.07066917 21.25601006 C-3.57483656 18.42749835 -3.07712106 15.59932456 -2.57885742 12.77124023 C-2.43291641 11.93672836 -2.2869754 11.10221649 -2.13661194 10.24241638 C-1.52741628 6.79487242 -0.87778929 3.38886869 0 0 Z " fill="#24BAE8" transform="translate(453,307)"/>
<path d="M0 0 C1.18193436 -0.00014603 2.36386871 -0.00029205 3.58161926 -0.0004425 C7.44473173 0.00024792 11.30779451 0.00799916 15.17089844 0.01586914 C17.86659722 0.01829629 20.56229595 0.01920812 23.25799561 0.02015686 C29.6006041 0.02324848 35.94319509 0.03143224 42.28579593 0.04150635 C49.51447111 0.05273535 56.74314719 0.05819494 63.97182894 0.06320179 C78.82465319 0.07361698 93.67746215 0.09117385 108.53027344 0.11352539 C107.00423929 3.3298268 105.43226573 5.40121838 102.84277344 7.86352539 C100.15022992 10.48355876 97.59200965 13.12926723 95.15527344 15.98852539 C94.61181463 16.60197123 94.06835583 17.21541706 93.50842857 17.84745216 C92.13659477 19.41895473 90.8069535 21.0279062 89.51276588 22.66394615 C84.97444142 27.91750571 81.68591347 30.73448049 74.63314819 31.31607056 C71.95062646 31.34497293 69.30378565 31.32100119 66.62548828 31.2487793 C65.14620151 31.24595328 63.66690074 31.24755222 62.18762207 31.25320435 C58.19948655 31.25605646 54.2144009 31.19756075 50.2269702 31.12746477 C46.04979939 31.06465514 41.87254698 31.05905452 37.69497681 31.04721069 C29.79687968 31.01621488 21.90017821 30.93427398 14.00269377 30.8337158 C5.00645853 30.72167101 -3.98984583 30.66689214 -12.98660588 30.61676145 C-31.48176867 30.51243016 -49.97563514 30.33670932 -68.46972656 30.11352539 C-65.63766092 21.0208984 -59.04542385 14.38372773 -50.97753906 9.42211914 C-34.87179425 1.01803112 -17.84321304 -0.05894653 0 0 Z " fill="#24B9E7" transform="translate(317.4697265625,309.886474609375)"/>
<path d="M0 0 C1.07409622 -0.00137466 2.14819244 -0.00274933 3.25483704 -0.00416565 C5.01458107 0.00122726 5.01458107 0.00122726 6.80987549 0.00672913 C8.66880684 0.00651009 8.66880684 0.00651009 10.56529236 0.00628662 C13.95959922 0.00686376 17.3538452 0.0118778 20.74814129 0.01886058 C24.29689543 0.0251134 27.84565038 0.02569944 31.39440918 0.02688599 C38.11269278 0.02999361 44.8309601 0.03819934 51.54923654 0.04823548 C59.19851645 0.05941426 66.84779714 0.06491152 74.49708319 0.06993091 C90.23058849 0.08038242 105.96407754 0.09797086 121.6975708 0.12025452 C121.28492981 0.6014122 120.87228882 1.08256989 120.44714355 1.57830811 C119.63572906 2.52465874 119.63572906 2.52465874 118.80792236 3.49012756 C118.27153137 4.11566025 117.73514038 4.74119293 117.18249512 5.38568115 C116.0957533 6.65512861 115.01275908 7.92778693 113.9319458 9.20228577 C109.94757353 13.84722502 105.70662551 18.16406967 101.3225708 22.43275452 C98.76960531 24.88619395 98.76960531 24.88619395 97.36067867 27.10077667 C94.94314279 30.47645688 93.07044349 32.75421067 88.96928596 33.84768677 C85.58106479 34.10520241 82.274722 34.10989886 78.87750244 34.02845764 C77.59876251 34.02962585 76.32002258 34.03079407 75.00253296 34.03199768 C71.51247828 34.03428433 68.02464287 33.98740312 64.53510213 33.93140602 C60.88237858 33.88124382 57.2295987 33.87668444 53.57658386 33.86720276 C46.66667333 33.84238144 39.75778073 33.77679402 32.84831756 33.69640684 C24.97904171 33.60684905 17.10971608 33.56296729 9.24005711 33.52284336 C-6.94136665 33.43932209 -23.12176783 33.29869656 -39.3024292 33.12025452 C-38.83352899 31.67354991 -38.36118731 30.22796043 -37.88739014 28.78285217 C-37.62472351 27.97772186 -37.36205688 27.17259155 -37.09143066 26.34306335 C-33.16075228 15.26938728 -24.42841226 8.33794424 -14.27703857 3.34046936 C-9.31463338 0.98949563 -5.47223222 -0.00540734 0 0 Z " fill="#24B9E8" transform="translate(556.3024291992188,306.87974548339844)"/>
<path d="M0 0 C3.96 0 7.92 0 12 0 C12 5.61 12 11.22 12 17 C14.64 17 17.28 17 20 17 C20 15.68 20 14.36 20 13 C26.27 13 32.54 13 39 13 C39 8.71 39 4.42 39 0 C42.96 0 46.92 0 51 0 C51 4.29 51 8.58 51 13 C57.6 13 64.2 13 71 13 C71 16.63 71 20.26 71 24 C64.4 24 57.8 24 51 24 C51 26.97 51 29.94 51 33 C51.95261719 32.96519531 52.90523437 32.93039062 53.88671875 32.89453125 C55.14097656 32.86746094 56.39523437 32.84039063 57.6875 32.8125 C58.92886719 32.77769531 60.17023438 32.74289062 61.44921875 32.70703125 C65.18564321 33.0153171 67.00629483 33.81911727 70 36 C68.29193215 47.1973337 62.77212465 56.84874731 55 65 C60.97815846 69.17957211 67.0876849 71.72554338 74 74 C72.28564986 77.55225704 70.22257977 80.74021634 68 84 C59.84471889 83.6293054 52.68644019 79.45762679 46 75 C41.89881487 75.33774466 38.77679035 77.01348984 35.1875 78.9375 C30.4484009 81.3802742 26.2227293 82.99562898 21 84 C19.9944239 82.54550599 18.99569565 81.08627557 18 79.625 C17.443125 78.81289063 16.88625 78.00078125 16.3125 77.1640625 C15 75 15 75 15 73 C16.02480469 72.67386719 17.04960938 72.34773437 18.10546875 72.01171875 C19.46625123 71.57063753 20.82692249 71.12921307 22.1875 70.6875 C22.86103516 70.47416016 23.53457031 70.26082031 24.22851562 70.04101562 C28.15355262 68.75819866 31.52787503 67.29901867 35 65 C34.31164062 63.948125 34.31164062 63.948125 33.609375 62.875 C24 48.01680672 24 48.01680672 24 44 C23.34 44 22.68 44 22 44 C22 40.37 22 36.74 22 33 C27.61 33 33.22 33 39 33 C39 30.03 39 27.06 39 24 C32.73 24 26.46 24 20 24 C20 25.32 20 26.64 20 28 C17.36 28 14.72 28 12 28 C12.33 31.63 12.66 35.26 13 39 C16.465 38.505 16.465 38.505 20 38 C20.33 41.63 20.66 45.26 21 49 C18.03 49.66 15.06 50.32 12 51 C12.01047363 51.66531738 12.02094727 52.33063477 12.03173828 53.01611328 C12.07350465 56.0523699 12.09939152 59.08856586 12.125 62.125 C12.14175781 63.17171875 12.15851562 64.2184375 12.17578125 65.296875 C12.25349685 77.57594031 12.25349685 77.57594031 8.296875 81.83203125 C5.2408443 83.38603326 2.66276828 83.51686159 -0.75 83.6875 C-1.92046875 83.75324219 -3.0909375 83.81898438 -4.296875 83.88671875 C-5.18890625 83.92410156 -6.0809375 83.96148438 -7 84 C-7.99 80.37 -8.98 76.74 -10 73 C-6.7 73 -3.4 73 0 73 C0 67.06 0 61.12 0 55 C-4.455 55.495 -4.455 55.495 -9 56 C-10.19287411 52.12315913 -11 49.08378077 -11 45 C-7.37 44.34 -3.74 43.68 0 43 C0 38.05 0 33.1 0 28 C-3.3 28 -6.6 28 -10 28 C-10 24.37 -10 20.74 -10 17 C-6.7 17 -3.4 17 0 17 C0 11.39 0 5.78 0 0 Z M36 44 C37.51075874 47.77689685 38.60855917 50.16576315 40.9375 53.3125 C41.44152344 54.00988281 41.94554687 54.70726562 42.46484375 55.42578125 C42.97144531 55.94527344 43.47804688 56.46476563 44 57 C44.99 57 45.98 57 47 57 C48.62389522 55.41167484 48.62389522 55.41167484 50.0625 53.3125 C50.56910156 52.62800781 51.07570313 51.94351563 51.59765625 51.23828125 C53.31303109 48.64815175 53.31303109 48.64815175 55 44 C48.73 44 42.46 44 36 44 Z " fill="#24BAE8" transform="translate(812,484)"/>
<path d="M0 0 C0.66 2.97 1.32 5.94 2 9 C6.29 9 10.58 9 15 9 C15 11.97 15 14.94 15 18 C13.74703125 18.00257813 12.4940625 18.00515625 11.203125 18.0078125 C9.55204766 18.04533698 7.90100665 18.0844845 6.25 18.125 C5.425 18.12242187 4.6 18.11984375 3.75 18.1171875 C1.35597235 18.1944142 -0.69854972 18.32827952 -3 19 C-5.64006674 21.87129714 -5.64006674 21.87129714 -7 25 C-5.02 24.67 -3.04 24.34 -1 24 C-0.67 22.68 -0.34 21.36 0 20 C2.31 19.67 4.62 19.34 7 19 C9.475 23.95 9.475 23.95 12 29 C13.94376249 25.11247502 14.69925296 22.11373706 15.5 17.875 C15.75649112 16.53775672 16.01300161 15.20051715 16.26953125 13.86328125 C16.51058594 12.58839844 16.75164062 11.31351562 17 10 C17.39305061 8.02027882 17.78840126 6.04101078 18.1875 4.0625 C18.455625 2.721875 18.72375 1.38125 19 0 C23.95 0.495 23.95 0.495 29 1 C28.34 5.62 27.68 10.24 27 15 C32.28 15 37.56 15 43 15 C43 18.3 43 21.6 43 25 C41.68 25 40.36 25 39 25 C38.97421875 25.72960937 38.9484375 26.45921875 38.921875 27.2109375 C38.45960049 35.7209909 36.89928212 43.65927345 34.9375 51.93359375 C34.77725342 52.63025146 34.61700684 53.32690918 34.4519043 54.04467773 C34.05017604 55.7828958 33.62991368 57.51680697 33.20703125 59.25 C32.94978829 62.66696308 33.67434653 63.83767485 35.6875 66.5625 C36.51701172 67.7071875 36.51701172 67.7071875 37.36328125 68.875 C40.13239572 72.47683503 40.13239572 72.47683503 43 76 C41.02 78.64 39.04 81.28 37 84 C33.00624614 82.00312307 31.82011507 80.83477029 29.25 77.375 C28.63640625 76.55773437 28.0228125 75.74046875 27.390625 74.8984375 C26.93171875 74.27195312 26.4728125 73.64546875 26 73 C25.46890625 73.71027344 24.9378125 74.42054688 24.390625 75.15234375 C23.68421875 76.07144531 22.9778125 76.99054688 22.25 77.9375 C21.55390625 78.85402344 20.8578125 79.77054688 20.140625 80.71484375 C17.98970965 83.01098513 17.06382739 83.67567593 14 84 C11 80.25 11 80.25 11 78 C10.34 78 9.68 78 9 78 C8.95875 78.61875 8.9175 79.2375 8.875 79.875 C8 82 8 82 5.25 83.25 C2 84 2 84 -3 84 C-3.99 80.7 -4.98 77.4 -6 74 C-3.03 74.495 -3.03 74.495 0 75 C0 72.69 0 70.38 0 68 C-2.64 68 -5.28 68 -8 68 C-8 73.28 -8 78.56 -8 84 C-11.3 84 -14.6 84 -18 84 C-18 68.49 -18 52.98 -18 37 C-10.74 37 -3.48 37 4 37 C3.67 36.01 3.34 35.02 3 34 C-4.26 34.66 -11.52 35.32 -19 36 C-19.99 33.03 -20.98 30.06 -22 27 C-21.21625 26.2575 -20.4325 25.515 -19.625 24.75 C-17.43495469 22.45566682 -16.17268614 20.87841142 -15 18 C-15.94875 18 -16.8975 18 -17.875 18 C-19.58333333 18 -21.29166667 18 -23 18 C-24.65 18.99 -26.3 19.98 -28 21 C-31.63 17.04 -35.26 13.08 -39 9 C-36.36538462 3.73076923 -36.36538462 3.73076923 -33 2 C-28.06891079 2.90835854 -25.28933444 6.48117711 -22 10 C-21.67 9.67 -21.34 9.34 -21 9 C-18.81360547 8.92741054 -16.62499611 8.91626217 -14.4375 8.9375 C-12.64119141 8.95103516 -12.64119141 8.95103516 -10.80859375 8.96484375 C-9.88175781 8.97644531 -8.95492188 8.98804688 -8 9 C-8.66 6.69 -9.32 4.38 -10 2 C-8.7090864 1.66376204 -7.41723903 1.33110751 -6.125 1 C-5.40570313 0.814375 -4.68640625 0.62875 -3.9453125 0.4375 C-2 0 -2 0 0 0 Z M25 25 C23.60712194 26.17036305 23.60712194 26.17036305 23.8125 29.4375 C23.85775043 34.42409743 24.88832066 39.15625432 26 44 C26.33 44 26.66 44 27 44 C28.32388229 37.56971459 29.24794402 31.5705166 29 25 C27.68 25 26.36 25 25 25 Z M8 35 C7.34 35.66 6.68 36.32 6 37 C7.32 37 8.64 37 10 37 C10 36.34 10 35.68 10 35 C9.34 35 8.68 35 8 35 Z M10 40 C10 51.55 10 63.1 10 75 C16.83818096 69.41088187 16.83818096 69.41088187 21 62 C21.22371948 58.85114835 20.70152039 56.06399347 20 53 C19.8246875 52.15179687 19.649375 51.30359375 19.46875 50.4296875 C19.01000106 48.27761526 18.52055655 46.13781963 18 44 C17.01 44.66 16.02 45.32 15 46 C14.360625 45.01 13.72125 44.02 13.0625 43 C12.381875 42.01 11.70125 41.02 11 40 C10.67 40 10.34 40 10 40 Z M-8 45 C-8 46.32 -8 47.64 -8 49 C-5.36 49 -2.72 49 0 49 C0 47.68 0 46.36 0 45 C-2.64 45 -5.28 45 -8 45 Z M-8 57 C-8 57.99 -8 58.98 -8 60 C-5.36 60 -2.72 60 0 60 C0 59.01 0 58.02 0 57 C-2.64 57 -5.28 57 -8 57 Z " fill="#24BAE8" transform="translate(460,484)"/>
<path d="M0 0 C21.12 0 42.24 0 64 0 C64 14.19 64 28.38 64 43 C54.43 43.33 44.86 43.66 35 44 C38.3 46.31 41.6 48.62 45 51 C45.66 52.32 46.32 53.64 47 55 C44.69 57.31 42.38 59.62 40 62 C38.88625 61.154375 37.7725 60.30875 36.625 59.4375 C31.83274545 55.83901495 26.92608768 52.41192139 22 49 C23.875 45.125 23.875 45.125 25 44 C16.75 43.67 8.5 43.34 0 43 C0 28.81 0 14.62 0 0 Z M11 10 C11 12.31 11 14.62 11 17 C16.28 17 21.56 17 27 17 C27 14.69 27 12.38 27 10 C21.72 10 16.44 10 11 10 Z M38 10 C38 12.31 38 14.62 38 17 C42.95 17 47.9 17 53 17 C53 14.69 53 12.38 53 10 C48.05 10 43.1 10 38 10 Z M11 26 C11 28.31 11 30.62 11 33 C16.28 33 21.56 33 27 33 C27 30.69 27 28.38 27 26 C21.72 26 16.44 26 11 26 Z M38 26 C38 28.31 38 30.62 38 33 C42.95 33 47.9 33 53 33 C53 30.69 53 28.38 53 26 C48.05 26 43.1 26 38 26 Z " fill="#25B9E8" transform="translate(236,488)"/>
<path d="M0 0 C1.2890625 1.6796875 1.2890625 1.6796875 2.625 3.875 C3.07101562 4.59429687 3.51703125 5.31359375 3.9765625 6.0546875 C5 8 5 8 5 10 C3.54293274 10.50367757 2.08429904 11.00282556 0.625 11.5 C-0.18710937 11.7784375 -0.99921875 12.056875 -1.8359375 12.34375 C-4 13 -4 13 -6 13 C-6 16.63 -6 20.26 -6 24 C-2.04 24 1.92 24 6 24 C6.495 27.96 6.495 27.96 7 32 C8.65 30.68 10.3 29.36 12 28 C16.49108752 29.42860919 19.46169316 31.93077292 22.8125 35.125 C23.31458984 35.59292969 23.81667969 36.06085937 24.33398438 36.54296875 C25.56189455 37.68901825 26.78178215 38.84365311 28 40 C26.42003387 43.32072528 24.92110579 45.68029835 22 48 C17.75968277 47.80808909 15.65802636 44.92425456 12.875 42 C8.99739126 37.47901285 8.99739126 37.47901285 3.6171875 35.90234375 C2.71226562 35.91394531 1.80734375 35.92554688 0.875 35.9375 C-0.03507813 35.94652344 -0.94515625 35.95554687 -1.8828125 35.96484375 C-2.58148437 35.97644531 -3.28015625 35.98804688 -4 36 C-3.33871094 36.74765625 -2.67742188 37.4953125 -1.99609375 38.265625 C-1.15175781 39.25046875 -0.30742188 40.2353125 0.5625 41.25 C1.40941406 42.22453125 2.25632812 43.1990625 3.12890625 44.203125 C5 47 5 47 4.8984375 49.15625 C3.51775396 51.98965273 1.88934729 54.48087027 0 57 C-0.66 57 -1.32 57 -2 57 C-2.99 55.02 -3.98 53.04 -5 51 C-5.33 61.56 -5.66 72.12 -6 83 C-9.63 83 -13.26 83 -17 83 C-17.33 74.09 -17.66 65.18 -18 56 C-19.98 59.63 -21.96 63.26 -24 67 C-25.485 67.99 -25.485 67.99 -27 69 C-29.35161552 65.45543667 -31.1096049 62.18121208 -32 58 C-30.79230579 54.78995776 -29.13889684 52.51827421 -27.06640625 49.79296875 C-23.90602713 45.52137882 -22.0872855 40.87033284 -20 36 C-23.63 35.67 -27.26 35.34 -31 35 C-31 31.37 -31 27.74 -31 24 C-26.38 24 -21.76 24 -17 24 C-17.33 21.36 -17.66 18.72 -18 16 C-20.97 16.33 -23.94 16.66 -27 17 C-30 10.375 -30 10.375 -30 7 C-28.73285156 6.74605469 -27.46570313 6.49210937 -26.16015625 6.23046875 C-24.46087819 5.88310252 -22.76166275 5.53542983 -21.0625 5.1875 C-19.81629883 4.9390332 -19.81629883 4.9390332 -18.54492188 4.68554688 C-13.48854118 3.64279132 -8.67152661 2.3228272 -3.81030273 0.5793457 C-2 0 -2 0 0 0 Z " fill="#24BAE8" transform="translate(641,485)"/>
<path d="M0 0 C15.05524479 11.39766795 15.05524479 11.39766795 17.71459961 19.37573242 C16.31087159 20.57849938 14.89107863 21.76253761 13.46459961 22.93823242 C12.67569336 23.59952148 11.88678711 24.26081055 11.07397461 24.94213867 C8.71459961 26.37573242 8.71459961 26.37573242 6.67553711 26.37963867 C3.95617571 24.98745565 2.52135996 23.11018879 0.58959961 20.75073242 C-11.81833412 6.51511615 -29.4706546 -0.28910709 -47.96899414 -1.85083008 C-63.86966397 -2.37061423 -78.91174185 3.09680094 -92.28540039 11.37573242 C-94.59540039 8.07573242 -96.90540039 4.77573242 -99.28540039 1.37573242 C-97.01401104 -3.16704628 -94.78187656 -4.41537458 -90.47290039 -6.62426758 C-89.80653564 -6.97239502 -89.1401709 -7.32052246 -88.45361328 -7.67919922 C-60.19358671 -21.99184875 -25.41316148 -18.36303517 0 0 Z " fill="#24B9E8" transform="translate(523.285400390625,243.624267578125)"/>
<path d="M0 0 C3.63 0 7.26 0 11 0 C11 16.5 11 33 11 50 C15.455 49.505 15.455 49.505 20 49 C20.495 54.445 20.495 54.445 21 60 C18.03 60.66 15.06 61.32 12 62 C11.67 69.26 11.34 76.52 11 84 C7.37 84 3.74 84 0 84 C0 77.4 0 70.8 0 64 C-1.53011719 64.28875 -3.06023438 64.5775 -4.63671875 64.875 C-6.65360229 65.25023415 -8.6705318 65.62522123 -10.6875 66 C-12.19860352 66.28617188 -12.19860352 66.28617188 -13.74023438 66.578125 C-14.71669922 66.75859375 -15.69316406 66.9390625 -16.69921875 67.125 C-17.59471436 67.29257812 -18.49020996 67.46015625 -19.4128418 67.6328125 C-21.98012932 67.99717982 -24.41092013 68.06528807 -27 68 C-29 60.375 -29 60.375 -29 57 C-19.76 55.35 -10.52 53.7 -1 52 C-0.67 34.84 -0.34 17.68 0 0 Z " fill="#24B9E8" transform="translate(673,484)"/>
<path d="M0 0 C4.39481453 3.61959581 8.24476473 7.73268719 12 12 C10.66532324 15.0856141 9.34911605 16.84376111 6.625 18.8125 C5.74714844 19.47185547 5.74714844 19.47185547 4.8515625 20.14453125 C3 21 3 21 0.9140625 20.7734375 C-2.0475238 19.57671487 -3.77780258 17.27270191 -6 15 C-16.69356434 5.67004454 -28.08198968 3.15648422 -42 4 C-47.19145914 4.96453339 -51.74994742 6.79693326 -56.4375 9.1875 C-60 11 -60 11 -63 11 C-64.60546875 9.03125 -64.60546875 9.03125 -66.1875 6.5 C-66.98220703 5.24703125 -66.98220703 5.24703125 -67.79296875 3.96875 C-68.39044922 2.99421875 -68.39044922 2.99421875 -69 2 C-67.09833988 -3.1190037 -63.1917342 -4.38048203 -58.48828125 -6.60546875 C-38.94823725 -14.41711008 -17.36401876 -11.84635583 0 0 Z " fill="#24B9E8" transform="translate(508,264)"/>
<path d="M0 0 C3.63 0 7.26 0 11 0 C11.33 5.61 11.66 11.22 12 17 C18.27 16.67 24.54 16.34 31 16 C31.66 13.03 32.32 10.06 33 7 C34.48034764 7.47550561 35.95925021 7.95551216 37.4375 8.4375 C38.26121094 8.70433594 39.08492188 8.97117187 39.93359375 9.24609375 C42 10 42 10 43 11 C43.51981403 16.09417745 42.60584402 19.70659906 40.65625 24.30078125 C37.11516896 27.93372996 31.44456343 28.08406682 26.59765625 28.265625 C25.08595176 28.27400601 23.57411405 28.26853851 22.0625 28.25 C21.27415771 28.24395752 20.48581543 28.23791504 19.67358398 28.23168945 C6.29503877 28.00343385 6.29503877 28.00343385 2.33984375 24.55078125 C-0.08323417 21.74622751 -0.11944248 19.82745136 -0.09765625 16.2109375 C-0.09443359 15.26992188 -0.09121094 14.32890625 -0.08789062 13.359375 C-0.07951172 12.37453125 -0.07113281 11.3896875 -0.0625 10.375 C-0.05798828 9.38242187 -0.05347656 8.38984375 -0.04882812 7.3671875 C-0.03702161 4.91143278 -0.01908582 2.45570894 0 0 Z " fill="#24BAE7" transform="translate(249,539)"/>
<path d="M0 0 C3.26178562 2.42318005 6.36243995 4.89736293 9 8 C9 8.99 9 9.98 9 11 C7.171875 12.640625 7.171875 12.640625 4.75 14.25 C3.96109375 14.79140625 3.1721875 15.3328125 2.359375 15.890625 C0 17 0 17 -2.13671875 16.796875 C-4.79822174 15.65862215 -6.77200922 13.828095 -9 12 C-15.42865964 9.85711345 -22.79880128 10.31840055 -29 13 C-30.17544805 11.56967163 -31.34010262 10.13046758 -32.5 8.6875 C-33.1496875 7.88699219 -33.799375 7.08648437 -34.46875 6.26171875 C-36 4 -36 4 -36 1 C-34.75264433 0.3490741 -33.50198168 -0.29551669 -32.25 -0.9375 C-31.55390625 -1.29714844 -30.8578125 -1.65679687 -30.140625 -2.02734375 C-20.83096695 -6.2574621 -8.65920086 -5.23613318 0 0 Z " fill="#24BAE8" transform="translate(490,283)"/>
<path d="M0 0 C3.44094186 1.31246538 6.13540882 2.66588867 9 5 C8.39514931 11.78239237 6.72661921 17.95250242 4.6875 24.4375 C4.39166016 25.44232422 4.09582031 26.44714844 3.79101562 27.48242188 C3.49259766 28.43568359 3.19417969 29.38894531 2.88671875 30.37109375 C2.48779419 31.6693811 2.48779419 31.6693811 2.08081055 32.99389648 C1 35 1 35 -0.99780273 35.83789062 C-4.64462611 36.13315836 -6.99776902 33.90526197 -10 32 C-9.38884856 27.70222534 -8.3721565 23.81937484 -6.93359375 19.7265625 C-6.53076172 18.57285156 -6.12792969 17.41914062 -5.71289062 16.23046875 C-5.29201172 15.04066406 -4.87113281 13.85085938 -4.4375 12.625 C-4.01275391 11.41199219 -3.58800781 10.19898438 -3.15039062 8.94921875 C-2.10459637 5.96459246 -1.05433507 2.98161764 0 0 Z " fill="#25BAE8" transform="translate(430,531)"/>
<path d="M0 0 C3.21976646 1.69195571 4.47504573 4.75304218 6.1171875 7.859375 C6.46394531 8.48908203 6.81070312 9.11878906 7.16796875 9.76757812 C8.12672519 11.51795148 9.06034694 13.28202545 9.9921875 15.046875 C10.42273438 15.77261719 10.85328125 16.49835937 11.296875 17.24609375 C11.9921875 19.046875 11.9921875 19.046875 11.93359375 21.15625 C10.54874519 23.93743963 8.80410217 24.27809512 5.9296875 25.296875 C5.01058594 25.63203125 4.09148437 25.9671875 3.14453125 26.3125 C2.07912109 26.67601562 2.07912109 26.67601562 0.9921875 27.046875 C0.73002441 26.49225586 0.46786133 25.93763672 0.19775391 25.36621094 C-0.99531258 22.84288323 -2.18905575 20.31987622 -3.3828125 17.796875 C-4.0015625 16.48783203 -4.0015625 16.48783203 -4.6328125 15.15234375 C-5.23222656 13.88583984 -5.23222656 13.88583984 -5.84375 12.59375 C-6.21032715 11.81870117 -6.5769043 11.04365234 -6.95458984 10.24511719 C-7.95012254 8.16728307 -8.97089396 6.1043181 -10.0078125 4.046875 C-8.76604555 3.34461359 -7.51395651 2.66058391 -6.2578125 1.984375 C-5.21367187 1.41009766 -5.21367187 1.41009766 -4.1484375 0.82421875 C-2.0078125 0.046875 -2.0078125 0.046875 0 0 Z " fill="#24BAE8" transform="translate(298.0078125,535.953125)"/>
<path d="M0 0 C1.6498275 0.42218816 3.29483665 0.86324425 4.9375 1.3125 C6.31228516 1.67794922 6.31228516 1.67794922 7.71484375 2.05078125 C8.84599609 2.52064453 8.84599609 2.52064453 10 3 C11.97082378 8.91247135 7.4752069 17.02139752 4.7734375 22.4765625 C3.89525582 24.01180098 2.95641664 25.51224079 2 27 C-2.05281712 25.77472971 -5.44360764 24.30119506 -9 22 C-7.68771164 18.58562009 -6.19698288 15.36375391 -4.5 12.125 C-2.46608003 8.1171577 -1.0435277 4.36384313 0 0 Z " fill="#24BAE8" transform="translate(236,536)"/>
<path d="M0 0 C3.19815161 1.35109079 5.46350854 3.62419774 7.94140625 5.98828125 C8.44800781 6.46072266 8.95460938 6.93316406 9.4765625 7.41992188 C10.72090238 8.58208836 11.95698689 9.75308286 13.19140625 10.92578125 C12.40148109 15.17503383 10.34487188 17.0148899 7.19140625 19.92578125 C3.11764594 18.31567598 0.42633556 15.38755854 -2.55859375 12.30078125 C-3.06519531 11.78515625 -3.57179688 11.26953125 -4.09375 10.73828125 C-5.33663277 9.47194786 -6.57324651 8.19946685 -7.80859375 6.92578125 C-6.60403883 3.31211648 -4.22972042 -0.17357384 0 0 Z " fill="#24B9E9" transform="translate(657.80859375,490.07421875)"/>
<path d="M0 0 C3.09085045 1.20994146 5.02887108 3.16440999 7.4453125 5.421875 C8.33734375 6.24816406 9.229375 7.07445312 10.1484375 7.92578125 C10.82390625 8.56386719 11.499375 9.20195313 12.1953125 9.859375 C10.61534637 13.18010028 9.11641829 15.53967335 6.1953125 17.859375 C3.06830894 17.96024608 2.05525049 16.73008699 -0.2421875 14.609375 C-1.510625 13.248125 -1.510625 13.248125 -2.8046875 11.859375 C-3.7328125 10.93125 -4.6609375 10.003125 -5.6171875 9.046875 C-6.3390625 8.325 -7.0609375 7.603125 -7.8046875 6.859375 C-6.34112186 3.3224247 -4.29362311 -0.33456803 0 0 Z " fill="#24B9E8" transform="translate(425.8046875,509.140625)"/>
</svg>
