<?xml version="1.0" encoding="UTF-8"?>
<svg
  id="uuid-cd2b5b6e-4aed-42b1-8832-21d3fb96c7d0"
  data-name="Layer 1"
  xmlns="http://www.w3.org/2000/svg"
  viewBox="0 0 500 500"
>
  <defs>
    <style>
      .uuid-6d5dca35-1012-4960-a72f-ac935afc2092 { fill: #25bae8; }
    </style>
  </defs>

  <!-- 将所有原始元素放到一个 <g> 里，垂直平移 (499.09 - 162.53) / 2 = 168.28 -->
  <g transform="translate(0,168.28)">
    <path
      class="uuid-6d5dca35-1012-4960-a72f-ac935afc2092"
      d="M419.52,162.53l25.46-26.54h-80.08l10.53-59.47c1.59-8.98-5.32-17.21-14.43-17.21h-14.3l-18.36,103.22h91.18Z"
    />
    <path
      class="uuid-6d5dca35-1012-4960-a72f-ac935afc2092"
      d="M168.01,59.31l-18.03,103.22h31.94l14.92-86.02c1.56-8.98-5.36-17.2-14.48-17.2h-14.36Z"
    />
    <path
      class="uuid-6d5dca35-1012-4960-a72f-ac935afc2092"
      d="M470.04,59.31l-18.03,103.22h31.94l14.92-86.02c1.56-8.98-5.36-17.2-14.47-17.2h-14.36Z"
    />
    <g>
      <path
        class="uuid-6d5dca35-1012-4960-a72f-ac935afc2092"
        d="M225.16,31.49c-8.27-11.45-20.49-18.99-34.41-21.23-13.92-2.25-27.9,1.07-39.34,9.34l-5.6-7.75c13.51-9.76,30.02-13.68,46.46-11.03,16.45,2.65,30.88,11.56,40.65,25.08l-7.76,5.6Z"
      />
      <path
        class="uuid-6d5dca35-1012-4960-a72f-ac935afc2092"
        d="M209.59,42.73c-10.86-15.03-31.92-18.42-46.94-7.57l-5.6-7.76c19.32-13.93,46.35-9.58,60.3,9.72l-7.76,5.6Z"
      />
      <path
        class="uuid-6d5dca35-1012-4960-a72f-ac935afc2092"
        d="M194.02,53.97c-4.66-6.44-13.69-7.91-20.13-3.25l-5.6-7.75c10.73-7.75,25.74-5.32,33.49,5.4l-7.76,5.6Z"
      />
    </g>
    <path
      class="uuid-6d5dca35-1012-4960-a72f-ac935afc2092"
      d="M14.79,83.85c.08-.22.17-.43.26-.64,1.71-4.13,4.5-7.81,8.29-10.93,3.86-3.17,8.93-5.69,15.07-7.47,6.26-1.82,13.99-2.74,22.98-2.74h85.5l-20.64,21.9-111.45-.12Z"
    />
    <path
      class="uuid-6d5dca35-1012-4960-a72f-ac935afc2092"
      d="M0,162.41l20.46-21.59h79.12c5.11,0,8.82-.91,11.35-2.77,1.9-1.4,4.16-4.11,4.16-9.1,0-3.43-1.66-9.17-12.81-9.17h-57.84c-11.31,0-19.61-2.13-24.65-6.32-3.05-2.53-5.52-6.71-6.67-10.28h95.57c10.88,0,19.57,3.08,25.03,6.8,5.19,3.54,7.72,8.66,7.72,15.64,0,5.32-.89,10.31-2.66,14.81-1.72,4.39-4.51,8.25-8.31,11.47-3.85,3.27-8.94,5.85-15.13,7.68-6.3,1.87-14.1,2.82-23.2,2.82H0Z"
    />
    <path
      class="uuid-6d5dca35-1012-4960-a72f-ac935afc2092"
      d="M335.74,59.31l-22.74,24.12h-96.95c3.89-14.13,16.78-24.12,31.69-24.12h88Z"
    />
    <polygon
      class="uuid-6d5dca35-1012-4960-a72f-ac935afc2092"
      points="319.36 103.21 299.01 124.74 240.55 124.74 233.91 162.53 201.82 162.53 212.37 103.21 319.36 103.21"
    />
  </g>
</svg>